<svg xmlns="http://www.w3.org/2000/svg" viewBox="0 0 1536 1536">
  <path fill="#000000" d="M 775.0 1238.5 L 680.0 1234.5 L 594.0 1222.5 L 503.0 1197.5 L 445.0 1172.5 L 380.0 1132.5 L 329.5 1086.0 L 308.5 1060.0 L 287.5 1027.0 L 264.5 976.0 L 247.5 910.0 L 243.5 880.0 L 242.5 824.0 L 250.5 739.0 L 266.5 647.0 L 304.5 512.0 L 352.5 392.0 L 390.5 326.0 L 401.0 313.5 L 418.0 300.5 L 427.0 297.5 L 448.0 300.5 L 472.0 314.5 L 502.0 339.5 L 546.5 388.0 L 618.0 483.5 L 626.0 484.5 L 701.0 471.5 L 752.0 470.5 L 825.0 471.5 L 916.0 483.5 L 977.5 401.0 L 1033.0 340.5 L 1083.0 302.5 L 1095.0 297.5 L 1116.0 300.5 L 1133.0 311.5 L 1153.0 338.5 L 1184.5 397.0 L 1233.5 522.0 L 1269.5 655.0 L 1285.5 748.0 L 1293.5 825.0 L 1292.5 881.0 L 1288.5 910.0 L 1270.5 980.0 L 1247.5 1029.0 L 1226.5 1062.0 L 1205.5 1088.0 L 1155.0 1134.5 L 1090.0 1174.5 L 1032.0 1199.5 L 941.0 1224.5 L 855.0 1236.5 L 776.0 1239.5 Z"/>
</svg>
